<svg width="160" height="140" viewBox="0 0 160 140" fill="none" xmlns="http://www.w3.org/2000/svg">
<g clip-path="url(#clip0_1_2)">
<path fill-rule="evenodd" clip-rule="evenodd" d="M100 120C105.253 120 110.454 118.965 115.307 116.955C120.16 114.945 124.57 111.999 128.284 108.284C131.999 104.57 134.945 100.16 136.955 95.3072C138.965 90.4544 140 85.2528 140 80C140 64.0872 133.678 48.8256 122.426 37.5736C111.174 26.3214 95.9128 20 80 20C64.0872 20 48.8256 26.3214 37.5736 37.5736C26.3214 48.8256 20 64.0872 20 80C20 85.2528 21.0346 90.4544 23.0448 95.3072C25.055 100.16 28.0014 104.57 31.7157 108.284C35.4301 111.999 39.8396 114.945 44.6928 116.955C49.5456 118.965 54.7472 120 60 120H100ZM80 36C68.3304 36 57.1388 40.6356 48.8872 48.8872C40.6356 57.1388 36 68.3304 36 80C36 83.1516 36.6208 86.2724 37.8269 89.1844C39.033 92.0964 40.8008 94.742 43.0296 96.9704C45.258 99.1992 47.9036 100.967 50.8156 102.173C53.7276 103.379 56.8484 104 60 104H100C103.152 104 106.272 103.379 109.184 102.173C112.096 100.967 114.742 99.1992 116.97 96.9704C119.199 94.742 120.967 92.0964 122.173 89.1844C123.379 86.2724 124 83.1516 124 80C124 68.3304 119.364 57.1388 111.113 48.8872C102.861 40.6356 91.6696 36 80 36Z" fill="#3064E8"/>
<path fill-rule="evenodd" clip-rule="evenodd" d="M52 140C45.1712 140 38.4095 138.448 32.1005 135.433C25.7917 132.418 20.0592 127.998 15.2304 122.426C10.4019 116.855 6.57156 110.241 3.95826 102.961C1.34503 95.6816 0 87.8792 0 80C0 58.7828 8.42856 38.4344 23.4315 23.4314C38.4344 8.42856 58.7828 0 80 0C101.217 0 121.566 8.42856 136.568 23.4314C151.572 38.4344 160 58.7828 160 80C160 87.8792 158.655 95.6816 156.042 102.961C153.428 110.241 149.598 116.855 144.77 122.426C139.941 127.998 134.208 132.418 127.9 135.433C121.59 138.448 114.829 140 108 140H52ZM34.7452 34.7452C46.7476 22.7428 63.026 16 80 16C96.974 16 113.252 22.7428 125.255 34.7452C137.257 46.7476 144 63.026 144 80C144 86.0716 142.962 92.0428 140.983 97.5552C139.004 103.067 136.15 107.942 132.678 111.948C129.21 115.949 125.218 118.981 121 120.997C116.792 123.008 112.383 124 108 124H52C47.6172 124 43.2076 123.008 39 120.997C34.782 118.981 30.7896 115.949 27.3215 111.948C23.8497 107.942 20.9961 103.067 19.0173 97.5552C17.0384 92.0428 16 86.0716 16 80C16 63.026 22.7428 46.7476 34.7452 34.7452Z" fill="#3064E8"/>
<path d="M100 100H79.9824C78.6384 99.9988 77.3044 99.862 76 99.596C73.472 99.08 71.0548 98.0768 68.8888 96.6292C65.5996 94.4316 63.036 91.3084 61.5224 87.6536C61.0316 86.4684 60.658 85.2448 60.404 84C59.8744 81.406 59.8628 78.7196 60.3844 76.098C61.156 72.2184 63.0608 68.6548 65.858 65.858C68.6548 63.0608 72.2184 61.156 76.098 60.3844C76.2196 60.36 76.3408 60.3372 76.4624 60.3152C77.6348 60.1048 78.8188 60 80 60C82.614 60 85.2152 60.5124 87.6536 61.5224C91.308 63.036 94.4316 65.5996 96.6292 68.8884C98.8272 72.1776 100 76.0444 100 80H84C84 79.2088 83.7656 78.4356 83.326 77.7776C82.8864 77.12 82.2616 76.6072 81.5308 76.3044C80.8 76.0016 79.9956 75.9224 79.2196 76.0768C78.4436 76.2312 77.7308 76.612 77.1716 77.1716C76.612 77.7308 76.2312 78.4436 76.0768 79.2196C75.9224 79.9956 76.0016 80.8 76.3044 81.5308C76.6072 82.2616 77.12 82.8864 77.7776 83.326C78.4356 83.7656 79.2088 84 80 84H100C100.525 84 101.046 83.8964 101.531 83.6956C102.016 83.4944 102.457 83.2 102.828 82.8284C103.2 82.4568 103.494 82.016 103.696 81.5308C103.896 81.0456 104 80.5252 104 80C104 73.6348 101.472 67.5304 96.9704 63.0296C92.4696 58.5284 86.3652 56 80 56C79.3096 56 78.6224 56.0296 77.94 56.0884C76.2628 56.2328 74.614 56.5528 73.02 57.0376C71.4516 57.514 69.936 58.1504 68.4972 58.936C66.8492 59.836 65.302 60.932 63.892 62.2088C63.5984 62.4744 63.3108 62.748 63.0296 63.0296C61.0604 64.9984 59.4688 67.2748 58.3012 69.7452C57.7176 70.9804 57.2396 72.264 56.874 73.5824C56.4556 75.0896 56.1836 76.6416 56.0664 78.2176C56.0224 78.8088 56 79.4032 56 80C56 83.1364 56.6148 86.2584 57.8268 89.1844C59.6436 93.57 62.7196 97.318 66.6664 99.9552C66.6888 99.9704 66.7112 99.9852 66.7336 100H60C57.3736 100 54.7728 99.4828 52.3464 98.4776C49.92 97.4724 47.7152 95.9992 45.858 94.142C44.0008 92.2848 42.5276 90.08 41.5224 87.6536C40.5172 85.2272 40 82.6264 40 80C40 69.3912 44.2144 59.2172 51.7156 51.7156C59.2172 44.2144 69.3912 40 80 40C90.6088 40 100.783 44.2144 108.284 51.7156C115.786 59.2172 120 69.3912 120 80C120 82.6264 119.483 85.2272 118.478 87.6536C117.472 90.08 115.999 92.2848 114.142 94.142C112.285 95.9992 110.08 97.4724 107.654 98.4776C105.227 99.4828 102.626 100 100 100Z" fill="#3064E8"/>
</g>
<defs>
<clipPath id="clip0_1_2">
<rect width="160" height="140" fill="white"/>
</clipPath>
</defs>
</svg>
