<svg width="773" height="140" viewBox="0 0 773 140" fill="none" xmlns="http://www.w3.org/2000/svg">
<g clip-path="url(#clip0_1_12)">
<path fill-rule="evenodd" clip-rule="evenodd" d="M100 120C105.253 120 110.454 118.965 115.307 116.955C120.16 114.945 124.57 111.999 128.284 108.284C131.999 104.57 134.945 100.16 136.955 95.3072C138.965 90.4544 140 85.2528 140 80C140 64.0872 133.678 48.8256 122.426 37.5736C111.174 26.3214 95.9128 20 80 20C64.0872 20 48.8256 26.3214 37.5736 37.5736C26.3214 48.8256 20 64.0872 20 80C20 85.2528 21.0346 90.4544 23.0448 95.3072C25.055 100.16 28.0014 104.57 31.7157 108.284C35.4301 111.999 39.8396 114.945 44.6928 116.955C49.5456 118.965 54.7472 120 60 120H100ZM80 36C68.3304 36 57.1388 40.6356 48.8872 48.8872C40.6356 57.1388 36 68.3304 36 80C36 83.1516 36.6208 86.2724 37.8269 89.1844C39.033 92.0964 40.8008 94.742 43.0296 96.9704C45.258 99.1992 47.9036 100.967 50.8156 102.173C53.7276 103.379 56.8484 104 60 104H100C103.152 104 106.272 103.379 109.184 102.173C112.096 100.967 114.742 99.1992 116.97 96.9704C119.199 94.742 120.967 92.0964 122.173 89.1844C123.379 86.2724 124 83.1516 124 80C124 68.3304 119.364 57.1388 111.113 48.8872C102.861 40.6356 91.6696 36 80 36Z" fill="#3064E8"/>
<path fill-rule="evenodd" clip-rule="evenodd" d="M52 140C45.1712 140 38.4095 138.448 32.1005 135.433C25.7917 132.418 20.0592 127.998 15.2304 122.426C10.4019 116.855 6.57156 110.241 3.95826 102.961C1.34503 95.6816 0 87.8792 0 80C0 58.7828 8.42856 38.4344 23.4315 23.4314C38.4344 8.42856 58.7828 0 80 0C101.217 0 121.566 8.42856 136.568 23.4314C151.572 38.4344 160 58.7828 160 80C160 87.8792 158.655 95.6816 156.042 102.961C153.428 110.241 149.598 116.855 144.77 122.426C139.941 127.998 134.208 132.418 127.9 135.433C121.59 138.448 114.829 140 108 140H52ZM34.7452 34.7452C46.7476 22.7428 63.026 16 80 16C96.974 16 113.252 22.7428 125.255 34.7452C137.257 46.7476 144 63.026 144 80C144 86.0716 142.962 92.0428 140.983 97.5552C139.004 103.067 136.15 107.942 132.678 111.948C129.21 115.949 125.218 118.981 121 120.997C116.792 123.008 112.383 124 108 124H52C47.6172 124 43.2076 123.008 39 120.997C34.782 118.981 30.7896 115.949 27.3215 111.948C23.8497 107.942 20.9961 103.067 19.0173 97.5552C17.0384 92.0428 16 86.0716 16 80C16 63.026 22.7428 46.7476 34.7452 34.7452Z" fill="#3064E8"/>
<path d="M100 100H79.9824C78.6384 99.9988 77.3044 99.862 76 99.596C73.472 99.08 71.0548 98.0768 68.8888 96.6292C65.5996 94.4316 63.036 91.3084 61.5224 87.6536C61.0316 86.4684 60.658 85.2448 60.404 84C59.8744 81.406 59.8628 78.7196 60.3844 76.098C61.156 72.2184 63.0608 68.6548 65.858 65.858C68.6548 63.0608 72.2184 61.156 76.098 60.3844C76.2196 60.36 76.3408 60.3372 76.4624 60.3152C77.6348 60.1048 78.8188 60 80 60C82.614 60 85.2152 60.5124 87.6536 61.5224C91.308 63.036 94.4316 65.5996 96.6292 68.8884C98.8272 72.1776 100 76.0444 100 80H84C84 79.2088 83.7656 78.4356 83.326 77.7776C82.8864 77.12 82.2616 76.6072 81.5308 76.3044C80.8 76.0016 79.9956 75.9224 79.2196 76.0768C78.4436 76.2312 77.7308 76.612 77.1716 77.1716C76.612 77.7308 76.2312 78.4436 76.0768 79.2196C75.9224 79.9956 76.0016 80.8 76.3044 81.5308C76.6072 82.2616 77.12 82.8864 77.7776 83.326C78.4356 83.7656 79.2088 84 80 84H100C100.525 84 101.046 83.8964 101.531 83.6956C102.016 83.4944 102.457 83.2 102.828 82.8284C103.2 82.4568 103.494 82.016 103.696 81.5308C103.896 81.0456 104 80.5252 104 80C104 73.6348 101.472 67.5304 96.9704 63.0296C92.4696 58.5284 86.3652 56 80 56C79.3096 56 78.6224 56.0296 77.94 56.0884C76.2628 56.2328 74.614 56.5528 73.02 57.0376C71.4516 57.514 69.936 58.1504 68.4972 58.936C66.8492 59.836 65.302 60.932 63.892 62.2088C63.5984 62.4744 63.3108 62.748 63.0296 63.0296C61.0604 64.9984 59.4688 67.2748 58.3012 69.7452C57.7176 70.9804 57.2396 72.264 56.874 73.5824C56.4556 75.0896 56.1836 76.6416 56.0664 78.2176C56.0224 78.8088 56 79.4032 56 80C56 83.1364 56.6148 86.2584 57.8268 89.1844C59.6436 93.57 62.7196 97.318 66.6664 99.9552C66.6888 99.9704 66.7112 99.9852 66.7336 100H60C57.3736 100 54.7728 99.4828 52.3464 98.4776C49.92 97.4724 47.7152 95.9992 45.858 94.142C44.0008 92.2848 42.5276 90.08 41.5224 87.6536C40.5172 85.2272 40 82.6264 40 80C40 69.3912 44.2144 59.2172 51.7156 51.7156C59.2172 44.2144 69.3912 40 80 40C90.6088 40 100.783 44.2144 108.284 51.7156C115.786 59.2172 120 69.3912 120 80C120 82.6264 119.483 85.2272 118.478 87.6536C117.472 90.08 115.999 92.2848 114.142 94.142C112.285 95.9992 110.08 97.4724 107.654 98.4776C105.227 99.4828 102.626 100 100 100Z" fill="#3064E8"/>
</g>
<path d="M187.36 94V51.44H197.6V94H187.36ZM181.344 68.976V60.016H204.192V68.976H181.344ZM210.044 94V46.64H220.092V66.928L218.044 67.696C218.513 66.16 219.345 64.7733 220.54 63.536C221.777 62.256 223.249 61.232 224.956 60.464C226.663 59.696 228.455 59.312 230.332 59.312C232.892 59.312 235.047 59.8453 236.796 60.912C238.545 61.936 239.868 63.4933 240.764 65.584C241.66 67.632 242.108 70.1493 242.108 73.136V94H231.804V73.968C231.804 72.6027 231.612 71.472 231.228 70.576C230.844 69.68 230.247 69.0187 229.436 68.592C228.668 68.1227 227.708 67.9093 226.556 67.952C225.66 67.952 224.828 68.1013 224.06 68.4C223.292 68.656 222.631 69.0613 222.076 69.616C221.521 70.128 221.073 70.7253 220.732 71.408C220.433 72.0907 220.284 72.8373 220.284 73.648V94H215.228C214.033 94 213.009 94 212.156 94C211.303 94 210.599 94 210.044 94ZM266.669 94.64C263.128 94.64 259.97 93.872 257.197 92.336C254.466 90.8 252.29 88.7093 250.669 86.064C249.09 83.4187 248.301 80.3893 248.301 76.976C248.301 73.5627 249.09 70.5333 250.669 67.888C252.29 65.2427 254.466 63.152 257.197 61.616C259.97 60.08 263.128 59.312 266.669 59.312C270.21 59.312 273.346 60.08 276.077 61.616C278.85 63.152 281.026 65.2427 282.605 67.888C284.184 70.5333 284.973 73.5627 284.973 76.976C284.973 80.3893 284.184 83.4187 282.605 86.064C281.026 88.7093 278.85 90.8 276.077 92.336C273.346 93.872 270.21 94.64 266.669 94.64ZM266.669 85.808C268.205 85.808 269.57 85.424 270.765 84.656C271.96 83.888 272.898 82.8427 273.581 81.52C274.264 80.1973 274.584 78.6827 274.541 76.976C274.584 75.2693 274.264 73.7547 273.581 72.432C272.898 71.0667 271.96 70 270.765 69.232C269.57 68.464 268.205 68.08 266.669 68.08C265.133 68.08 263.746 68.464 262.509 69.232C261.314 70 260.376 71.0667 259.693 72.432C259.01 73.7547 258.69 75.2693 258.733 76.976C258.69 78.6827 259.01 80.1973 259.693 81.52C260.376 82.8427 261.314 83.888 262.509 84.656C263.746 85.424 265.133 85.808 266.669 85.808ZM303.253 94.704C300.736 94.704 298.581 94.1707 296.789 93.104C295.04 91.9947 293.674 90.416 292.693 88.368C291.754 86.32 291.285 83.8667 291.285 81.008V60.016H301.589V79.6C301.589 80.9653 301.802 82.1387 302.229 83.12C302.656 84.1013 303.296 84.8693 304.149 85.424C305.002 85.936 306.026 86.192 307.221 86.192C308.117 86.192 308.928 86.0427 309.653 85.744C310.421 85.4453 311.061 85.04 311.573 84.528C312.128 83.9733 312.554 83.3547 312.853 82.672C313.152 81.9467 313.301 81.1573 313.301 80.304V60.016H323.605V94H313.941L313.493 87.024L315.413 86.256C314.901 87.8773 314.048 89.328 312.853 90.608C311.658 91.8453 310.229 92.848 308.565 93.616C306.901 94.3413 305.13 94.704 303.253 94.704ZM347.659 108.72C344.885 108.72 342.112 108.315 339.339 107.504C336.608 106.693 334.389 105.648 332.683 104.368L336.267 97.2C337.163 97.7973 338.144 98.3093 339.211 98.736C340.32 99.2053 341.472 99.568 342.667 99.824C343.861 100.08 345.077 100.208 346.315 100.208C348.491 100.208 350.261 99.888 351.627 99.248C352.992 98.608 354.016 97.6267 354.699 96.304C355.381 95.024 355.723 93.4027 355.723 91.44V85.744L357.707 86.064C357.408 87.472 356.661 88.752 355.467 89.904C354.315 91.056 352.885 91.9947 351.179 92.72C349.472 93.4027 347.659 93.744 345.739 93.744C342.667 93.744 339.915 93.04 337.483 91.632C335.093 90.1813 333.195 88.1973 331.786 85.68C330.421 83.12 329.739 80.176 329.739 76.848C329.739 73.4347 330.421 70.4267 331.786 67.824C333.152 65.1787 335.029 63.1093 337.419 61.616C339.808 60.08 342.496 59.312 345.483 59.312C346.763 59.312 347.979 59.4613 349.131 59.76C350.325 60.0587 351.413 60.464 352.395 60.976C353.419 61.4453 354.315 62.0213 355.083 62.704C355.893 63.344 356.533 64.048 357.003 64.816C357.515 65.584 357.856 66.3733 358.027 67.184L355.915 67.696L356.299 60.016H366.027V91.248C366.027 94.0213 365.6 96.4747 364.747 98.608C363.936 100.784 362.72 102.619 361.099 104.112C359.52 105.648 357.6 106.8 355.339 107.568C353.077 108.336 350.517 108.72 347.659 108.72ZM347.915 85.808C349.579 85.808 351.008 85.4453 352.203 84.72C353.44 83.952 354.379 82.9067 355.019 81.584C355.701 80.2613 356.043 78.704 356.043 76.912C356.043 75.12 355.701 73.5627 355.019 72.24C354.379 70.8747 353.44 69.8293 352.203 69.104C351.008 68.336 349.579 67.952 347.915 67.952C346.293 67.952 344.885 68.336 343.691 69.104C342.496 69.8293 341.557 70.8747 340.875 72.24C340.235 73.5627 339.915 75.12 339.915 76.912C339.915 78.704 340.235 80.2613 340.875 81.584C341.557 82.9067 342.496 83.952 343.691 84.72C344.885 85.4453 346.293 85.808 347.915 85.808ZM374.919 94V46.64H384.967V66.928L382.919 67.696C383.388 66.16 384.22 64.7733 385.415 63.536C386.652 62.256 388.124 61.232 389.831 60.464C391.538 59.696 393.33 59.312 395.207 59.312C397.767 59.312 399.922 59.8453 401.671 60.912C403.42 61.936 404.743 63.4933 405.639 65.584C406.535 67.632 406.983 70.1493 406.983 73.136V94H396.679V73.968C396.679 72.6027 396.487 71.472 396.103 70.576C395.719 69.68 395.122 69.0187 394.311 68.592C393.543 68.1227 392.583 67.9093 391.431 67.952C390.535 67.952 389.703 68.1013 388.935 68.4C388.167 68.656 387.506 69.0613 386.951 69.616C386.396 70.128 385.948 70.7253 385.607 71.408C385.308 72.0907 385.159 72.8373 385.159 73.648V94H380.103C378.908 94 377.884 94 377.031 94C376.178 94 375.474 94 374.919 94ZM418.36 94V51.44H428.6V94H418.36ZM412.344 68.976V60.016H435.192V68.976H412.344ZM441.108 94V46.64H451.348V94H441.108ZM476.049 94.64C472.294 94.64 469.03 93.8933 466.257 92.4C463.483 90.864 461.329 88.7947 459.793 86.192C458.257 83.5467 457.489 80.5387 457.489 77.168C457.489 74.5653 457.915 72.176 458.769 70C459.622 67.824 460.817 65.9467 462.353 64.368C463.889 62.7467 465.702 61.5093 467.793 60.656C469.926 59.76 472.251 59.312 474.769 59.312C477.158 59.312 479.334 59.7387 481.297 60.592C483.302 61.4453 485.03 62.64 486.481 64.176C487.931 65.712 489.041 67.5253 489.809 69.616C490.577 71.7067 490.918 73.9893 490.833 76.464L490.769 79.216H463.697L462.225 73.456H482.449L481.361 74.672V73.392C481.275 72.3253 480.934 71.3867 480.337 70.576C479.782 69.7227 479.035 69.0613 478.097 68.592C477.158 68.1227 476.091 67.888 474.897 67.888C473.233 67.888 471.803 68.2293 470.609 68.912C469.457 69.552 468.582 70.512 467.985 71.792C467.387 73.0293 467.089 74.5653 467.089 76.4C467.089 78.2773 467.473 79.92 468.241 81.328C469.051 82.6933 470.203 83.76 471.697 84.528C473.233 85.296 475.046 85.68 477.137 85.68C478.587 85.68 479.867 85.4667 480.977 85.04C482.129 84.6133 483.366 83.888 484.689 82.864L489.489 89.648C488.166 90.8 486.758 91.7387 485.265 92.464C483.771 93.1893 482.235 93.7227 480.657 94.064C479.121 94.448 477.585 94.64 476.049 94.64ZM508.812 94.64C505.485 94.64 502.541 94.1067 499.981 93.04C497.463 91.9733 495.458 90.544 493.965 88.752L500.173 83.376C501.495 84.6987 502.989 85.68 504.653 86.32C506.317 86.9173 507.895 87.216 509.389 87.216C509.986 87.216 510.519 87.152 510.989 87.024C511.458 86.896 511.842 86.7253 512.141 86.512C512.482 86.256 512.738 85.9787 512.909 85.68C513.079 85.3387 513.165 84.9547 513.165 84.528C513.165 83.6747 512.781 83.0133 512.013 82.544C511.629 82.3307 510.989 82.0747 510.093 81.776C509.197 81.4773 508.045 81.136 506.637 80.752C504.631 80.24 502.882 79.6427 501.389 78.96C499.938 78.2347 498.743 77.4027 497.805 76.464C496.951 75.568 496.29 74.5867 495.821 73.52C495.351 72.4107 495.117 71.1733 495.117 69.808C495.117 68.2293 495.479 66.8 496.205 65.52C496.973 64.24 497.975 63.1307 499.213 62.192C500.493 61.2533 501.943 60.5493 503.565 60.08C505.229 59.568 506.935 59.312 508.685 59.312C510.562 59.312 512.354 59.5253 514.061 59.952C515.767 60.3787 517.346 60.976 518.797 61.744C520.29 62.512 521.613 63.4293 522.765 64.496L517.389 70.512C516.621 69.7867 515.746 69.1467 514.765 68.592C513.826 67.9947 512.845 67.5253 511.821 67.184C510.797 66.8427 509.858 66.672 509.005 66.672C508.365 66.672 507.789 66.736 507.277 66.864C506.807 66.9493 506.402 67.12 506.061 67.376C505.719 67.5893 505.463 67.8667 505.293 68.208C505.122 68.5067 505.037 68.8693 505.037 69.296C505.037 69.7227 505.143 70.128 505.357 70.512C505.613 70.896 505.954 71.216 506.381 71.472C506.807 71.728 507.49 72.0267 508.429 72.368C509.367 72.6667 510.647 73.0507 512.269 73.52C514.274 74.0747 516.002 74.6933 517.453 75.376C518.903 76.0587 520.055 76.8693 520.909 77.808C521.591 78.5333 522.103 79.3867 522.445 80.368C522.786 81.3067 522.957 82.3307 522.957 83.44C522.957 85.616 522.338 87.5573 521.101 89.264C519.906 90.928 518.242 92.2507 516.109 93.232C513.975 94.1707 511.543 94.64 508.812 94.64ZM540.5 94.64C537.172 94.64 534.228 94.1067 531.668 93.04C529.151 91.9733 527.145 90.544 525.652 88.752L531.86 83.376C533.183 84.6987 534.676 85.68 536.34 86.32C538.004 86.9173 539.583 87.216 541.076 87.216C541.673 87.216 542.207 87.152 542.676 87.024C543.145 86.896 543.529 86.7253 543.828 86.512C544.169 86.256 544.425 85.9787 544.596 85.68C544.767 85.3387 544.852 84.9547 544.852 84.528C544.852 83.6747 544.468 83.0133 543.7 82.544C543.316 82.3307 542.676 82.0747 541.78 81.776C540.884 81.4773 539.732 81.136 538.324 80.752C536.319 80.24 534.569 79.6427 533.076 78.96C531.625 78.2347 530.431 77.4027 529.492 76.464C528.639 75.568 527.977 74.5867 527.508 73.52C527.039 72.4107 526.804 71.1733 526.804 69.808C526.804 68.2293 527.167 66.8 527.892 65.52C528.66 64.24 529.663 63.1307 530.9 62.192C532.18 61.2533 533.631 60.5493 535.252 60.08C536.916 59.568 538.623 59.312 540.372 59.312C542.249 59.312 544.041 59.5253 545.748 59.952C547.455 60.3787 549.033 60.976 550.484 61.744C551.977 62.512 553.3 63.4293 554.452 64.496L549.076 70.512C548.308 69.7867 547.433 69.1467 546.452 68.592C545.513 67.9947 544.532 67.5253 543.508 67.184C542.484 66.8427 541.545 66.672 540.692 66.672C540.052 66.672 539.476 66.736 538.964 66.864C538.495 66.9493 538.089 67.12 537.748 67.376C537.407 67.5893 537.151 67.8667 536.98 68.208C536.809 68.5067 536.724 68.8693 536.724 69.296C536.724 69.7227 536.831 70.128 537.044 70.512C537.3 70.896 537.641 71.216 538.068 71.472C538.495 71.728 539.177 72.0267 540.116 72.368C541.055 72.6667 542.335 73.0507 543.956 73.52C545.961 74.0747 547.689 74.6933 549.14 75.376C550.591 76.0587 551.743 76.8693 552.596 77.808C553.279 78.5333 553.791 79.3867 554.132 80.368C554.473 81.3067 554.644 82.3307 554.644 83.44C554.644 85.616 554.025 87.5573 552.788 89.264C551.593 90.928 549.929 92.2507 547.796 93.232C545.663 94.1707 543.231 94.64 540.5 94.64ZM581.168 94V60.016H590.896L591.216 66.16L589.872 66.224C590.384 65.1147 591.024 64.1333 591.792 63.28C592.602 62.4267 593.498 61.7227 594.48 61.168C595.504 60.5707 596.549 60.1227 597.616 59.824C598.725 59.5253 599.834 59.376 600.944 59.376C602.608 59.376 604.122 59.632 605.488 60.144C606.853 60.656 608.048 61.488 609.072 62.64C610.096 63.7493 610.906 65.264 611.504 67.184L609.904 67.056L610.416 66.032C610.97 65.008 611.674 64.0907 612.528 63.28C613.424 62.4267 614.405 61.7227 615.472 61.168C616.538 60.5707 617.648 60.1227 618.8 59.824C619.952 59.5253 621.061 59.376 622.128 59.376C624.816 59.376 627.056 59.9093 628.848 60.976C630.64 62 631.984 63.5573 632.88 65.648C633.818 67.7387 634.288 70.2773 634.288 73.264V94H623.984V74.096C623.984 72.7307 623.792 71.6 623.408 70.704C623.024 69.808 622.448 69.1467 621.68 68.72C620.954 68.2507 620.037 68.016 618.928 68.016C618.032 68.016 617.2 68.1653 616.432 68.464C615.706 68.7627 615.066 69.168 614.512 69.68C614 70.192 613.594 70.7893 613.296 71.472C612.997 72.1547 612.847 72.9227 612.847 73.776V94H602.544V74.032C602.544 72.752 602.352 71.664 601.968 70.768C601.584 69.872 601.008 69.1893 600.24 68.72C599.472 68.2507 598.576 68.016 597.552 68.016C596.656 68.016 595.824 68.1653 595.056 68.464C594.33 68.7627 593.69 69.168 593.135 69.68C592.624 70.192 592.218 70.7893 591.92 71.472C591.621 72.1547 591.472 72.9013 591.472 73.712V94H581.168ZM643.37 94V60.016H653.61V94H643.37ZM648.49 53.296C646.57 53.296 645.055 52.848 643.946 51.952C642.879 51.0133 642.346 49.6907 642.346 47.984C642.346 46.448 642.901 45.1893 644.01 44.208C645.119 43.2267 646.613 42.736 648.49 42.736C650.41 42.736 651.903 43.2053 652.97 44.144C654.037 45.04 654.57 46.32 654.57 47.984C654.57 49.5627 654.015 50.8427 652.906 51.824C651.839 52.8053 650.367 53.296 648.49 53.296ZM663.232 94V60.016H672.96L673.28 66.928L671.232 67.696C671.701 66.16 672.533 64.7733 673.728 63.536C674.965 62.256 676.437 61.232 678.144 60.464C679.85 59.696 681.642 59.312 683.52 59.312C686.08 59.312 688.234 59.8453 689.984 60.912C691.733 61.936 693.056 63.4933 693.951 65.584C694.848 67.632 695.296 70.1493 695.296 73.136V94H684.992V73.968C684.992 72.6027 684.8 71.472 684.416 70.576C684.032 69.68 683.434 69.0187 682.624 68.592C681.856 68.1227 680.896 67.9093 679.744 67.952C678.848 67.952 678.016 68.1013 677.248 68.4C676.48 68.656 675.818 69.0613 675.264 69.616C674.709 70.128 674.261 70.7253 673.92 71.408C673.621 72.0907 673.472 72.8373 673.472 73.648V94H668.416C667.221 94 666.197 94 665.344 94C664.49 94 663.786 94 663.232 94ZM716.721 94.704C713.777 94.704 711.153 93.9573 708.849 92.464C706.587 90.928 704.795 88.8373 703.473 86.192C702.15 83.504 701.489 80.4533 701.489 77.04C701.489 73.6267 702.15 70.5973 703.473 67.952C704.795 65.264 706.609 63.152 708.913 61.616C711.217 60.08 713.862 59.312 716.849 59.312C718.385 59.312 719.857 59.5467 721.265 60.016C722.673 60.4853 723.953 61.1253 725.105 61.936C726.257 62.7467 727.195 63.6853 727.921 64.752C728.646 65.776 729.073 66.8427 729.201 67.952L726.769 68.528V46.64H737.073V94H727.537L726.961 86.256L729.009 86.576C728.881 87.6427 728.454 88.6667 727.729 89.648C727.046 90.6293 726.15 91.504 725.041 92.272C723.931 92.9973 722.651 93.5733 721.201 94C719.793 94.4693 718.299 94.704 716.721 94.704ZM719.345 86.192C720.923 86.192 722.289 85.808 723.441 85.04C724.593 84.272 725.467 83.2053 726.065 81.84C726.705 80.4747 727.025 78.8747 727.025 77.04C727.025 75.1627 726.705 73.5413 726.065 72.176C725.467 70.8107 724.593 69.744 723.441 68.976C722.289 68.208 720.923 67.824 719.345 67.824C717.766 67.824 716.401 68.208 715.249 68.976C714.139 69.744 713.265 70.8107 712.625 72.176C711.985 73.5413 711.665 75.1627 711.665 77.04C711.665 78.8747 711.985 80.4747 712.625 81.84C713.265 83.2053 714.139 84.272 715.249 85.04C716.401 85.808 717.766 86.192 719.345 86.192ZM757.188 94.64C753.86 94.64 750.916 94.1067 748.356 93.04C745.838 91.9733 743.833 90.544 742.34 88.752L748.548 83.376C749.87 84.6987 751.364 85.68 753.028 86.32C754.692 86.9173 756.27 87.216 757.764 87.216C758.361 87.216 758.894 87.152 759.364 87.024C759.833 86.896 760.217 86.7253 760.516 86.512C760.857 86.256 761.113 85.9787 761.284 85.68C761.454 85.3387 761.54 84.9547 761.54 84.528C761.54 83.6747 761.156 83.0133 760.388 82.544C760.004 82.3307 759.364 82.0747 758.468 81.776C757.572 81.4773 756.42 81.136 755.012 80.752C753.006 80.24 751.257 79.6427 749.764 78.96C748.313 78.2347 747.118 77.4027 746.18 76.464C745.326 75.568 744.665 74.5867 744.196 73.52C743.726 72.4107 743.492 71.1733 743.492 69.808C743.492 68.2293 743.854 66.8 744.58 65.52C745.348 64.24 746.35 63.1307 747.588 62.192C748.868 61.2533 750.318 60.5493 751.94 60.08C753.604 59.568 755.31 59.312 757.06 59.312C758.937 59.312 760.729 59.5253 762.436 59.952C764.142 60.3787 765.721 60.976 767.172 61.744C768.665 62.512 769.988 63.4293 771.14 64.496L765.764 70.512C764.996 69.7867 764.121 69.1467 763.14 68.592C762.201 67.9947 761.22 67.5253 760.196 67.184C759.172 66.8427 758.233 66.672 757.38 66.672C756.74 66.672 756.164 66.736 755.652 66.864C755.182 66.9493 754.777 67.12 754.436 67.376C754.094 67.5893 753.838 67.8667 753.668 68.208C753.497 68.5067 753.412 68.8693 753.412 69.296C753.412 69.7227 753.518 70.128 753.732 70.512C753.988 70.896 754.329 71.216 754.756 71.472C755.182 71.728 755.865 72.0267 756.804 72.368C757.742 72.6667 759.022 73.0507 760.644 73.52C762.649 74.0747 764.377 74.6933 765.828 75.376C767.278 76.0587 768.43 76.8693 769.284 77.808C769.966 78.5333 770.478 79.3867 770.82 80.368C771.161 81.3067 771.332 82.3307 771.332 83.44C771.332 85.616 770.713 87.5573 769.476 89.264C768.281 90.928 766.617 92.2507 764.484 93.232C762.35 94.1707 759.918 94.64 757.188 94.64Z" fill="black"/>
<defs>
<clipPath id="clip0_1_12">
<rect width="160" height="140" fill="white"/>
</clipPath>
</defs>
</svg>
